<?xml version="1.0" standalone="no"?>
<!DOCTYPE svg PUBLIC "-//W3C//DTD SVG 20010904//EN"
 "http://www.w3.org/TR/2001/REC-SVG-20010904/DTD/svg10.dtd">
<svg version="1.0" xmlns="http://www.w3.org/2000/svg"
 width="853.000000pt" height="1280.000000pt" viewBox="0 0 853.000000 1280.000000"
 preserveAspectRatio="xMidYMid meet">
<metadata>
Created by potrace 1.15, written by Peter Selinger 2001-2017
</metadata>
<g transform="translate(0.000000,1280.000000) scale(0.100000,-0.100000)"
fill="#000000" stroke="none">
<path d="M4750 11203 c-302 -22 -599 -85 -1187 -254 -172 -49 -377 -103 -455
-119 -79 -16 -201 -46 -273 -66 -104 -30 -152 -38 -242 -42 -62 -2 -113 -1
-113 2 0 4 7 21 16 37 8 17 13 33 11 36 -12 12 -107 -52 -149 -100 -59 -68
-178 -130 -178 -93 0 27 -46 49 -78 38 -24 -8 -31 -7 -40 9 -16 25 -62 24 -96
-2 -19 -15 -34 -19 -55 -14 -22 5 -35 0 -56 -19 -16 -15 -38 -26 -50 -26 -36
0 -50 -27 -48 -89 l2 -56 -102 -64 c-128 -81 -249 -131 -337 -138 -86 -7 -131
8 -192 65 -42 39 -48 42 -48 23 0 -65 93 -177 187 -224 26 -14 57 -34 67 -46
l19 -21 46 46 c34 35 82 64 198 120 84 41 155 74 157 74 5 0 17 -136 16 -189
0 -27 -8 -54 -21 -72 -35 -50 -127 -253 -134 -297 -9 -54 9 -129 47 -206 19
-38 28 -69 26 -88 -3 -16 -1 -31 3 -34 8 -5 6 -43 -16 -219 -8 -60 -19 -171
-26 -245 -13 -157 -15 -150 80 -295 33 -49 60 -100 60 -112 1 -12 14 -37 29
-55 28 -32 194 -303 246 -402 14 -27 37 -60 51 -74 15 -14 34 -39 43 -54 9
-15 20 -28 24 -28 18 0 6 -41 -20 -72 -15 -18 -36 -46 -46 -62 -14 -23 -20
-26 -28 -15 -8 12 -9 11 -5 -1 2 -8 -1 -22 -8 -30 -7 -8 -20 -40 -29 -70 -16
-51 -16 -61 1 -152 9 -54 21 -98 26 -98 5 0 6 10 3 23 -4 12 -12 51 -18 87
-14 85 0 134 56 203 23 29 55 74 70 100 16 26 30 46 32 45 6 -6 -27 -121 -51
-179 -13 -31 -35 -103 -48 -160 -13 -58 -29 -115 -36 -126 -6 -12 -11 -50 -11
-85 0 -82 36 -292 55 -326 15 -26 15 -24 10 38 l-6 65 27 -65 c14 -36 36 -74
47 -85 l20 -20 -15 25 c-24 40 -37 87 -31 110 4 17 11 5 29 -49 l23 -71 -32
-46 c-28 -40 -32 -54 -31 -107 0 -44 6 -74 22 -102 11 -22 21 -33 22 -25 0 9
6 5 15 -10 22 -38 17 -10 -5 30 -11 19 -19 29 -20 21 0 -25 -14 -2 -18 32 -10
72 -5 115 18 148 l23 32 9 -24 c5 -13 6 -35 2 -49 -12 -39 -5 -109 18 -179 15
-47 19 -79 15 -125 -3 -36 -1 -53 3 -41 12 27 11 101 -1 155 -16 77 -22 173
-10 166 6 -4 11 -17 12 -29 0 -21 1 -21 8 -2 7 18 9 16 14 -10 2 -16 5 -41 5
-55 1 -14 6 -51 13 -82 16 -77 8 -156 -19 -193 -54 -75 -74 -232 -39 -305 16
-33 17 -33 10 -5 -5 17 -8 66 -7 110 0 64 5 91 27 138 26 58 68 124 52 82 -5
-11 -9 -33 -10 -50 -1 -16 -10 -59 -19 -95 -20 -73 -14 -206 9 -222 6 -4 10
-36 10 -72 0 -38 3 -57 7 -45 13 33 21 21 15 -23 -5 -34 -3 -39 5 -24 14 25
19 88 7 81 -5 -4 -6 1 -2 11 5 15 7 14 16 -2 14 -26 29 -34 43 -23 6 5 3 -15
-7 -44 -19 -53 -25 -106 -11 -93 4 4 13 24 19 44 9 26 11 28 6 7 -4 -16 -7
-57 -7 -91 -1 -51 1 -60 16 -61 22 -2 68 63 61 86 -4 12 -3 13 5 3 7 -11 14
-7 32 18 12 17 24 29 27 26 3 -3 -4 -18 -16 -34 -23 -32 -26 -42 -13 -42 4 0
21 20 37 46 34 54 49 66 34 27 -6 -15 -13 -53 -14 -83 -3 -48 -2 -52 8 -30 24
51 31 57 37 32 5 -21 6 -20 25 15 11 21 23 40 27 43 4 3 11 17 16 30 9 25 10
24 27 -15 34 -77 29 -222 -10 -265 -37 -43 -52 -85 -47 -143 3 -49 -1 -67 -25
-114 -16 -32 -47 -71 -72 -92 -24 -20 -74 -61 -110 -92 -97 -82 -454 -342
-469 -342 -8 0 -39 -24 -70 -54 -32 -30 -69 -60 -84 -68 -15 -9 -25 -21 -22
-28 4 -11 -187 -181 -356 -316 -30 -25 -89 -75 -132 -113 -47 -42 -82 -66 -91
-62 -8 3 -46 -10 -85 -29 -134 -67 -253 -172 -298 -263 -38 -78 -25 -84 23
-12 26 41 56 71 82 86 40 23 56 17 26 -8 -28 -23 -87 -131 -106 -193 -35 -116
-23 -202 50 -363 22 -51 41 -101 41 -113 0 -26 40 -133 85 -226 18 -38 37 -81
41 -95 3 -14 17 -45 29 -70 30 -60 66 -170 59 -181 -6 -10 49 -94 69 -106 7
-4 19 -24 27 -43 7 -19 26 -54 41 -76 16 -23 38 -66 49 -95 12 -30 43 -83 69
-119 27 -36 54 -76 61 -90 7 -14 28 -48 47 -77 20 -28 39 -69 43 -90 9 -40 34
-116 56 -171 18 -43 2 -90 -58 -169 -57 -74 -110 -122 -196 -177 -79 -51 -105
-78 -127 -129 -12 -30 -13 -46 -5 -77 9 -34 15 -40 48 -47 63 -14 303 -9 346
6 22 8 60 34 84 58 30 29 83 62 157 98 l113 53 23 69 c21 59 24 87 24 208 0
135 -1 143 -32 218 -18 43 -33 95 -33 115 -1 20 -7 48 -15 62 -8 14 -14 38
-15 53 0 16 -11 47 -24 70 -14 25 -26 67 -30 105 -7 63 -41 188 -56 207 -4 6
-11 46 -14 90 -7 84 -21 177 -36 235 -5 19 -17 69 -26 110 -14 67 -46 146 -64
160 -3 3 -20 34 -38 70 -17 36 -55 108 -85 161 l-54 97 22 28 c16 21 27 26 45
21 26 -7 100 30 100 50 0 7 36 31 79 53 104 52 316 174 424 244 47 30 83 48
80 39 -5 -13 -3 -13 16 -2 11 8 21 17 21 21 0 13 106 86 252 175 161 97 369
200 473 233 39 13 94 33 123 46 48 21 59 22 104 13 51 -11 142 -5 167 10 60
37 329 -157 622 -449 96 -95 132 -138 149 -178 12 -28 26 -52 31 -52 12 0 11
7 -1 33 -6 12 20 -10 57 -49 91 -95 197 -191 318 -287 55 -43 102 -87 105 -97
7 -23 87 -90 109 -90 22 0 63 -44 89 -95 11 -22 38 -60 60 -85 21 -25 57 -70
78 -100 21 -31 63 -87 91 -125 68 -89 170 -243 213 -320 19 -33 59 -98 89
-143 31 -46 67 -105 81 -130 13 -26 60 -81 105 -122 44 -41 97 -92 117 -113
67 -67 169 -147 272 -212 17 -11 51 -42 76 -68 46 -50 182 -157 199 -157 5 0
24 -19 43 -42 38 -49 147 -158 158 -158 4 0 33 -29 65 -65 57 -65 81 -114 111
-229 8 -32 29 -82 45 -111 l29 -52 138 -6 c156 -6 185 -13 267 -63 177 -109
240 -128 414 -122 92 2 114 6 138 24 42 31 57 67 43 108 -15 46 -56 82 -206
179 -72 46 -160 109 -195 138 -35 30 -84 70 -109 89 -84 65 -215 182 -250 224
-52 61 -240 248 -277 274 -17 12 -49 50 -71 85 -22 34 -49 71 -62 82 -12 11
-47 58 -77 105 -31 47 -77 110 -103 140 -26 30 -62 80 -80 110 -18 30 -43 66
-55 80 -13 14 -26 36 -30 49 -13 43 -81 146 -103 157 -34 17 -59 43 -127 129
-35 44 -84 103 -110 130 -26 28 -59 68 -73 90 -14 22 -36 51 -48 65 -40 46
-126 194 -169 291 -23 53 -68 142 -99 198 -31 56 -56 104 -56 107 0 3 21 2 46
-2 45 -6 46 -6 35 15 -13 23 -2 28 17 9 20 -20 14 2 -10 35 -41 59 -142 159
-201 199 -46 31 -65 39 -87 34 -27 -5 -32 1 -119 139 -50 79 -134 201 -186
270 -52 70 -95 133 -95 140 0 15 -127 178 -144 185 -7 3 -55 52 -106 110 -52
58 -169 182 -259 275 -253 262 -331 369 -331 457 0 44 -26 99 -59 128 -10 8
-31 44 -47 80 -28 62 -29 73 -32 232 -3 113 2 211 13 304 15 125 20 145 61
228 40 83 44 96 44 166 -1 41 -5 95 -9 119 -7 32 -4 69 10 134 33 163 91 243
208 288 48 18 76 22 189 21 75 0 138 -5 145 -11 9 -7 63 -7 167 0 85 5 209 12
274 15 66 3 128 10 139 16 14 7 79 8 201 3 197 -7 278 1 463 50 61 16 107 23
132 19 31 -4 45 -1 61 14 29 27 181 64 253 63 39 -1 78 7 120 23 34 13 82 24
107 24 25 1 54 6 65 11 11 6 68 26 127 45 87 27 119 43 170 84 35 27 78 68 95
90 18 22 59 59 90 81 71 50 112 105 96 129 -23 35 -71 16 -181 -73 -24 -19
-47 -35 -51 -35 -4 0 -8 36 -9 81 -2 84 13 149 72 304 19 50 25 80 21 103 -8
42 -23 37 -54 -17 -28 -51 -38 -48 -17 4 28 65 15 134 -18 106 -9 -8 -16 -19
-16 -25 0 -6 -9 -22 -19 -35 l-19 -24 -7 22 c-5 18 -9 20 -21 10 -8 -6 -14
-15 -14 -19 0 -4 -12 -33 -26 -65 -17 -37 -29 -53 -34 -45 -11 18 -24 -10 -76
-154 -81 -229 -105 -291 -119 -305 -9 -9 -37 -14 -82 -14 -37 0 -71 -5 -74
-10 -11 -16 -425 -22 -454 -7 -14 7 -31 9 -42 5 -10 -4 -34 -7 -53 -6 -37 1
-64 -10 -58 -25 1 -5 -58 -12 -132 -15 -76 -3 -177 -15 -230 -27 -128 -27
-251 -38 -279 -23 -24 13 -125 19 -391 22 -169 2 -193 5 -275 30 -144 43 -223
52 -396 45 -85 -4 -172 -7 -194 -8 -51 -1 -193 54 -232 90 -17 15 -44 38 -62
52 -23 18 -32 34 -34 60 -2 34 -1 35 33 34 74 -3 118 -16 123 -35 5 -19 27
-27 27 -9 0 5 16 25 35 44 28 28 35 43 35 74 0 23 6 45 15 52 8 7 15 22 15 34
0 11 7 29 15 40 8 10 12 30 9 45 -5 23 -1 28 29 39 48 17 52 37 19 87 -21 32
-28 53 -26 82 3 57 15 96 33 111 9 8 10 11 4 7 -17 -8 -16 -5 7 46 11 24 20
54 20 66 0 12 9 27 20 33 17 9 20 8 20 -9 0 -11 5 -23 10 -26 6 -3 10 3 10 14
0 23 15 28 23 9 3 -7 6 6 6 30 1 54 -48 152 -77 152 -5 0 -15 14 -21 30 -5 17
-16 30 -24 30 -8 0 -17 7 -21 15 -8 22 8 18 38 -10 17 -15 26 -19 26 -10 0 13
-55 65 -70 65 -4 0 -29 18 -56 40 -26 21 -59 42 -73 45 -14 3 -69 44 -121 91
-113 103 -174 137 -233 131 l-42 -4 43 -1 c23 -1 42 -6 42 -11 0 -5 10 -12 23
-15 12 -3 -7 -3 -43 -1 -41 2 -68 9 -75 18 -6 8 -25 18 -43 22 -22 4 -32 12
-28 20 2 7 -2 16 -11 19 -8 4 -13 12 -10 19 3 7 -1 21 -9 32 -8 10 -14 27 -14
37 0 9 -9 22 -21 28 -11 6 -36 29 -55 50 -39 43 -124 87 -196 100 -43 8 -61 6
-126 -16 -48 -16 -89 -37 -109 -57 -18 -17 -33 -28 -33 -24 0 11 -75 -76 -98
-115 -13 -20 -57 -67 -100 -104 -86 -75 -113 -112 -111 -152 2 -27 2 -27 6 -2
3 14 16 35 29 47 14 12 25 24 25 27 -1 3 1 5 3 4 3 -2 22 13 43 32 21 19 28
23 15 9 -12 -14 -20 -28 -17 -31 3 -3 -6 -29 -20 -59 -27 -59 -32 -130 -16
-216 13 -65 22 -283 10 -228 -17 79 -52 195 -57 191 -2 -3 7 -47 21 -98 15
-51 29 -120 31 -153 5 -63 -9 -139 -24 -133 -14 4 -180 240 -180 254 0 7 -12
22 -27 34 -52 39 -143 154 -153 192 -7 25 -7 58 1 105 6 37 12 145 15 239 l3
172 54 71 c62 82 87 146 87 218 0 63 -35 163 -88 248 -29 48 -36 70 -36 110 0
57 22 105 56 124 37 21 129 140 148 190 20 52 32 57 111 43 48 -9 54 -8 73 13
46 49 92 65 235 80 193 20 458 62 511 81 30 10 46 12 48 5 7 -20 46 -11 157
35 378 157 685 246 1065 309 539 89 1005 82 1331 -21 44 -14 83 -23 85 -21 11
11 -100 116 -163 154 -196 116 -615 183 -983 156z m-1802 -1730 c-10 -2 -28
-2 -40 0 -13 2 -5 4 17 4 22 1 32 -1 23 -4z m112 -202 c0 -17 4 -32 9 -35 5
-3 16 -29 25 -56 l17 -51 -31 -39 c-17 -21 -36 -56 -44 -76 -9 -26 -20 -40
-37 -45 -14 -3 -51 -23 -82 -44 -32 -21 -59 -36 -60 -34 -2 2 -12 43 -21 91
l-18 86 26 88 c14 48 30 92 34 96 17 17 108 47 145 48 34 0 37 -2 37 -29z
m-307 -21 c-3 -12 -8 -19 -11 -16 -5 6 5 36 12 36 2 0 2 -9 -1 -20z m-247
-128 c-32 -32 -35 -16 -4 23 14 18 23 24 26 16 2 -7 -7 -25 -22 -39z m320
-252 c-2 -8 -5 -4 -6 10 -2 16 -5 9 -9 -20 l-7 -45 -4 47 c-3 25 -1 44 4 41 4
-3 5 10 2 28 -6 33 -5 32 9 -6 9 -22 14 -46 11 -55z m193 86 c-2 -2 -14 -9
-26 -15 -19 -10 -22 -9 -17 4 4 8 15 15 27 15 11 0 18 -2 16 -4z m-134 -86
c-10 -11 -20 -18 -23 -15 -3 3 3 14 13 25 10 11 20 18 23 15 3 -3 -3 -14 -13
-25z m-418 -257 c-3 -10 -5 -4 -5 12 0 17 2 24 5 18 2 -7 2 -21 0 -30z m168
-252 c-15 -60 -33 -106 -40 -99 -4 4 22 105 36 141 18 44 20 27 4 -42z m-54
-28 c-8 -15 -10 -15 -11 -2 0 17 10 32 18 25 2 -3 -1 -13 -7 -23z m-9 -98 c3
-15 1 -22 -5 -18 -6 4 -8 -3 -4 -17 4 -15 2 -19 -4 -13 -8 8 -2 73 6 73 2 0 5
-11 7 -25z m108 -87 l0 -73 -26 26 -25 26 22 46 c13 26 24 47 26 47 2 0 3 -33
3 -72z m-309 -571 l-24 -22 19 27 c10 14 21 24 23 22 3 -3 -6 -15 -18 -27z
m30 -34 c-22 -40 -91 -114 -91 -99 0 9 21 39 46 66 49 53 61 61 45 33z m29
-36 c0 -2 -10 -12 -22 -23 l-23 -19 19 23 c18 21 26 27 26 19z m-4 -92 c-15
-30 -31 -55 -36 -55 -19 0 -39 -138 -38 -265 1 -122 0 -135 -29 -210 -25 -66
-31 -75 -37 -57 -5 15 -2 32 9 48 9 14 14 28 11 32 -3 3 -6 0 -6 -6 0 -7 -5
-12 -11 -12 -7 0 -9 10 -4 28 3 15 8 38 11 52 4 22 3 22 -10 -5 -9 -16 -16
-28 -17 -25 -5 15 -11 122 -12 240 -2 131 -1 136 26 182 31 53 57 77 33 30 -9
-17 -16 -41 -16 -54 0 -18 5 -13 19 18 24 53 48 70 27 20 -22 -52 -13 -44 23
19 30 53 50 73 37 38 -4 -11 2 -8 14 7 11 14 17 32 14 40 -4 12 -3 13 7 2 11
-10 8 -23 -15 -67z m-133 -10 c-3 -9 -8 -14 -10 -11 -3 3 -2 9 2 15 9 16 15
13 8 -4z m193 -144 c-9 -27 -16 -58 -16 -67 0 -17 -15 -69 -31 -109 -6 -17 -8
-15 -8 10 -1 29 26 141 49 199 18 48 24 20 6 -33z m-318 -151 l0 -65 -13 40
c-15 45 -18 117 -8 155 6 22 8 19 14 -20 4 -25 7 -74 7 -110z m71 -122 c6 -18
7 -28 2 -23 -10 12 -25 55 -18 55 3 0 10 -15 16 -32z m18 10 c-3 -8 -6 -5 -6
6 -1 11 2 17 5 13 3 -3 4 -12 1 -19z m135 -229 c-8 -22 -10 -19 -21 29 -10 50
-3 128 17 172 11 23 14 -173 4 -201z m-47 -186 l4 -48 -9 44 c-5 23 -12 53
-15 65 -5 18 -4 18 5 4 5 -9 12 -38 15 -65z m118 -358 c-3 -9 -8 -14 -10 -11
-3 3 -2 9 2 15 9 16 15 13 8 -4z m-119 -150 c3 -8 1 -15 -4 -15 -6 0 -10 7
-10 15 0 8 2 15 4 15 2 0 6 -7 10 -15z m96 -42 c-11 -17 -11 -17 -6 0 3 10 6
24 7 30 0 9 2 9 5 0 3 -7 0 -20 -6 -30z m140 7 c0 -5 -5 -10 -11 -10 -5 0 -7
5 -4 10 3 6 8 10 11 10 2 0 4 -4 4 -10z m-44 -49 c-15 -15 -16 -13 -4 19 9 26
13 30 16 16 2 -10 -3 -26 -12 -35z m-2 -85 c-3 -9 -10 -16 -15 -16 -6 0 -5 9
1 21 13 24 24 20 14 -5z"/>
<path d="M2489 9253 c-13 -16 -12 -17 4 -4 16 13 21 21 13 21 -2 0 -10 -8 -17
-17z"/>
<path d="M2379 9179 l-24 -20 28 17 c15 9 27 18 27 20 0 8 -8 4 -31 -17z"/>
<path d="M2430 9090 c-6 -11 -8 -20 -6 -20 3 0 10 9 16 20 6 11 8 20 6 20 -3
0 -10 -9 -16 -20z"/>
<path d="M3586 9078 c3 -7 17 -22 32 -32 27 -19 27 -19 -2 12 -32 35 -38 38
-30 20z"/>
<path d="M2392 8950 c0 -19 2 -27 5 -17 2 9 2 25 0 35 -3 9 -5 1 -5 -18z"/>
<path d="M2352 8885 c0 -16 2 -22 5 -12 2 9 2 23 0 30 -3 6 -5 -1 -5 -18z"/>
<path d="M2362 8830 c0 -14 2 -19 5 -12 2 6 2 18 0 25 -3 6 -5 1 -5 -13z"/>
<path d="M2395 8489 c-4 -6 -5 -12 -2 -15 2 -3 7 2 10 11 7 17 1 20 -8 4z"/>
<path d="M2114 7830 c-15 -22 -25 -42 -23 -45 3 -2 17 16 32 40 33 56 27 59
-9 5z"/>
<path d="M2217 6873 c-4 -3 -7 -11 -7 -17 0 -6 5 -5 12 2 6 6 9 14 7 17 -3 3
-9 2 -12 -2z"/>
<path d="M2218 6620 c4 -14 7 -47 6 -75 -1 -34 1 -43 7 -30 12 31 10 67 -6
100 -11 23 -13 24 -7 5z"/>
<path d="M2163 6412 c-54 -81 -73 -115 -73 -129 0 -4 13 16 30 45 16 29 45 76
65 103 20 28 35 53 33 55 -2 2 -27 -31 -55 -74z"/>
<path d="M2256 6443 c-6 -14 -5 -15 5 -6 7 7 10 15 7 18 -3 3 -9 -2 -12 -12z"/>
<path d="M2206 6403 c-6 -14 -5 -15 5 -6 7 7 10 15 7 18 -3 3 -9 -2 -12 -12z"/>
<path d="M2293 6367 c-12 -23 -24 -69 -27 -102 l-6 -60 14 66 c8 37 22 81 31
99 9 17 15 33 13 35 -2 2 -13 -15 -25 -38z"/>
<path d="M2208 6357 c-8 -17 -18 -48 -22 -67 -6 -35 -6 -35 5 -5 6 17 18 45
26 63 19 44 11 52 -9 9z"/>
<path d="M2116 6215 c-3 -9 -6 -24 -5 -33 0 -9 5 -4 10 12 9 32 6 48 -5 21z"/>
<path d="M2100 6141 c0 -6 4 -13 10 -16 6 -3 7 1 4 9 -7 18 -14 21 -14 7z"/>
<path d="M2386 5975 c-9 -26 -7 -32 5 -12 6 10 9 21 6 23 -2 3 -7 -2 -11 -11z"/>
<path d="M2551 5734 c0 -11 3 -14 6 -6 3 7 2 16 -1 19 -3 4 -6 -2 -5 -13z"/>
<path d="M2541 5684 c0 -11 3 -14 6 -6 3 7 2 16 -1 19 -3 4 -6 -2 -5 -13z"/>
</g>
</svg>
